<svg width="1024" height="768" viewBox="0 0 1024 768" fill="none" xmlns="http://www.w3.org/2000/svg">
<path d="M380.879 444.372H425.159V330.972H458.639V286.692L447.839 275.892H336.815V320.172L347.615 330.972H370.079V433.572L380.879 444.372ZM373.319 430.332V316.932H340.055V279.132H444.599V316.932H411.119V430.332H373.319Z" fill="#18DAC8"/>
<path d="M482.789 492.108H527.501L599.861 316.068L589.061 305.268H544.133L522.317 358.404L507.197 316.068L496.397 305.268H449.957L497.045 420.396L471.989 481.308L482.789 492.108ZM476.741 478.068L500.501 420.396L454.709 308.508H494.021L518.645 376.332L546.293 308.508H584.093L514.541 478.068H476.741Z" fill="#18B2D1"/>
<path d="M610.937 444.156H653.705V386.484C653.705 370.068 671.417 357.756 687.185 364.236V312.612L676.385 301.812C664.505 300.516 650.897 306.348 642.905 314.34V305.268H600.137V433.356L610.937 444.156ZM603.377 430.116V308.508H639.665V325.572C642.473 315.42 658.025 304.836 673.145 304.836V349.116C660.617 346.308 639.665 354.732 639.665 375.684V430.116H603.377Z" fill="#188ADA"/>
</svg>
